<svg width="45" height="45" viewBox="0 0 45 45" fill="none" xmlns="http://www.w3.org/2000/svg">
<rect width="45" height="45" rx="5" fill="#5A67BA"/>
<path d="M23 32C15.617 32 13 29.383 13 22C13 14.617 15.617 12 23 12C23.414 12 23.75 12.336 23.75 12.75C23.75 13.164 23.414 13.5 23 13.5C16.486 13.5 14.5 15.486 14.5 22C14.5 28.514 16.486 30.5 23 30.5C29.514 30.5 31.5 28.514 31.5 22C31.5 21.586 31.836 21.25 32.25 21.25C32.664 21.25 33 21.586 33 22C33 29.383 30.383 32 23 32Z" fill="white"/>
<path fill-rule="evenodd" clip-rule="evenodd" d="M30.2365 19.3862L31.2952 18.1908C32.4472 16.8898 32.3252 14.8948 31.0252 13.7418C30.3952 13.1838 29.5812 12.9038 28.7452 12.9558C27.9052 13.0068 27.1352 13.3828 26.5772 14.0128L20.6932 20.6609C18.8692 22.7189 20.1172 25.4399 20.1712 25.5549C20.2602 25.7439 20.4242 25.8879 20.6232 25.9499C20.6802 25.9689 21.3442 26.1719 22.2192 26.1719C23.2042 26.1719 24.4572 25.9129 25.4092 24.8369L30.0774 19.5658C30.1082 19.5406 30.1374 19.5125 30.1646 19.4816C30.1915 19.4513 30.2155 19.4194 30.2365 19.3862ZM21.4082 24.5959C22.0352 24.7099 23.4192 24.8219 24.2862 23.8429L28.5371 19.0431L26.0656 16.8542L21.8172 21.6559C20.9292 22.6569 21.2122 23.9919 21.4082 24.5959ZM27.0596 15.7309L29.5322 17.9195L30.1722 17.1968C30.7752 16.5148 30.7122 15.4688 30.0312 14.8658C29.7002 14.5738 29.2712 14.4248 28.8362 14.4528C28.3962 14.4808 27.9932 14.6768 27.7002 15.0068L27.0596 15.7309Z" fill="white"/>
</svg>
