<svg width="45" height="45" viewBox="0 0 45 45" fill="none" xmlns="http://www.w3.org/2000/svg">
<circle cx="22.5" cy="22.5" r="22.5" fill="#5A67BA"/>
<path d="M17.48 28.154C16.696 28.154 16.0287 28.0513 15.478 27.846C14.9367 27.6407 14.526 27.3 14.246 26.824C13.966 26.3387 13.826 25.6947 13.826 24.892V18.438H15.758V24.962C15.758 25.5127 15.9027 25.9093 16.192 26.152C16.4907 26.3947 16.92 26.516 17.48 26.516C18.068 26.516 18.5113 26.3947 18.81 26.152C19.1087 25.9093 19.258 25.5127 19.258 24.962V18.438H21.19V24.864C21.19 25.6667 21.0453 26.3107 20.756 26.796C20.476 27.2813 20.0607 27.6313 19.51 27.846C18.9687 28.0513 18.292 28.154 17.48 28.154ZM22.8781 28V18.438H24.8101V22.428H28.5201V18.438H30.4521V28H28.5201V24.052H24.8101V28H22.8781Z" fill="white"/>
</svg>
