<svg width="45" height="45" viewBox="0 0 45 45" fill="none" xmlns="http://www.w3.org/2000/svg">
<path d="M32.265 0C39.8925 0 45 5.355 45 13.32V31.7048C45 39.6472 39.8925 45 32.265 45H12.7575C5.13 45 0 39.6472 0 31.7048V13.32C0 5.355 5.13 0 12.7575 0H32.265ZM29.2725 15.6848C28.5075 14.9175 27.27 14.9175 26.4825 15.6848L22.5 19.6875L18.495 15.6848C17.7075 14.9175 16.47 14.9175 15.705 15.6848C14.94 16.4498 14.94 17.7097 15.705 18.4725L19.71 22.4797L15.705 26.4622C14.94 27.2498 14.94 28.4872 15.705 29.25C16.0875 29.6325 16.605 29.8372 17.1 29.8372C17.6175 29.8372 18.1125 29.6325 18.495 29.25L22.5 25.2698L26.505 29.25C26.8875 29.6572 27.3825 29.8372 27.8775 29.8372C28.395 29.8372 28.89 29.6325 29.2725 29.25C30.0375 28.4872 30.0375 27.2498 29.2725 26.4847L25.2675 22.4797L29.2725 18.4725C30.0375 17.7097 30.0375 16.4498 29.2725 15.6848Z" fill="#E04343"/>
</svg>
