<svg width="25" height="25" viewBox="0 0 25 25" fill="none" xmlns="http://www.w3.org/2000/svg">
<path d="M17.925 0C22.1625 0 25 2.975 25 7.4V17.6138C25 22.0262 22.1625 25 17.925 25H7.0875C2.85 25 0 22.0262 0 17.6138V7.4C0 2.975 2.85 0 7.0875 0H17.925ZM16.2625 8.71375C15.8375 8.2875 15.15 8.2875 14.7125 8.71375L12.5 10.9375L10.275 8.71375C9.8375 8.2875 9.15 8.2875 8.725 8.71375C8.3 9.13875 8.3 9.83875 8.725 10.2625L10.95 12.4888L8.725 14.7013C8.3 15.1387 8.3 15.8263 8.725 16.25C8.9375 16.4625 9.225 16.5763 9.5 16.5763C9.7875 16.5763 10.0625 16.4625 10.275 16.25L12.5 14.0387L14.725 16.25C14.9375 16.4762 15.2125 16.5763 15.4875 16.5763C15.775 16.5763 16.05 16.4625 16.2625 16.25C16.6875 15.8263 16.6875 15.1388 16.2625 14.7137L14.0375 12.4888L16.2625 10.2625C16.6875 9.83875 16.6875 9.13875 16.2625 8.71375Z" fill="#E04343"/>
</svg>
