<svg width="25" height="25" viewBox="0 0 25 25" fill="none" xmlns="http://www.w3.org/2000/svg">
<rect width="25" height="25" rx="5" fill="#5A67BA"/>
<path d="M12.7777 17.7776C8.67606 17.7776 7.22217 16.3237 7.22217 12.2221C7.22217 8.12039 8.67606 6.6665 12.7777 6.6665C13.0077 6.6665 13.1944 6.85317 13.1944 7.08317C13.1944 7.31317 13.0077 7.49984 12.7777 7.49984C9.15883 7.49984 8.0555 8.60317 8.0555 12.2221C8.0555 15.841 9.15883 16.9443 12.7777 16.9443C16.3966 16.9443 17.4999 15.841 17.4999 12.2221C17.4999 11.9921 17.6866 11.8054 17.9166 11.8054C18.1466 11.8054 18.3333 11.9921 18.3333 12.2221C18.3333 16.3237 16.8794 17.7776 12.7777 17.7776Z" fill="white"/>
<path fill-rule="evenodd" clip-rule="evenodd" d="M16.7978 10.7697L17.386 10.1056C18.026 9.38281 17.9582 8.27448 17.236 7.63392C16.886 7.32392 16.4338 7.16837 15.9693 7.19726C15.5027 7.22559 15.0749 7.43448 14.7649 7.78448L11.496 11.4778C10.4827 12.6212 11.176 14.1328 11.206 14.1967C11.2554 14.3017 11.3466 14.3817 11.4571 14.4162C11.4888 14.4267 11.8577 14.5395 12.3438 14.5395C12.891 14.5395 13.5871 14.3956 14.116 13.7978L16.7094 10.8695C16.7266 10.8554 16.7428 10.8398 16.7579 10.8227C16.7728 10.8058 16.7862 10.7881 16.7978 10.7697ZM11.8932 13.6639C12.2416 13.7273 13.0104 13.7895 13.4921 13.2456L15.8537 10.5791L14.4807 9.36303L12.1204 12.0306C11.6271 12.5867 11.7843 13.3284 11.8932 13.6639ZM15.0329 8.73894L16.4066 9.95485L16.7621 9.55337C17.0971 9.17448 17.0621 8.59337 16.6838 8.25837C16.4999 8.09614 16.2616 8.01337 16.0199 8.02892C15.7754 8.04448 15.5516 8.15337 15.3888 8.3367L15.0329 8.73894Z" fill="white"/>
</svg>
