<svg width="18" height="18" viewBox="0 0 18 18" fill="none" xmlns="http://www.w3.org/2000/svg">
<path d="M7.18216 0.177018C3.68755 0.859065 0.871467 3.66812 0.182388 7.15218C-1.11842 13.7266 4.81258 18.6275 9.28104 17.9349C10.7295 17.7099 11.4397 16.0153 10.7752 14.711C9.96309 13.1148 11.1233 11.2515 12.9163 11.2515H15.7183C16.9769 11.2515 17.9965 10.2109 18 8.95574C17.9824 3.41499 12.9409 -0.944494 7.18216 0.177018ZM3.37465 11.2515C2.75237 11.2515 2.24962 10.7488 2.24962 10.1265C2.24962 9.50419 2.75237 9.00145 3.37465 9.00145C3.99693 9.00145 4.49968 9.50419 4.49968 10.1265C4.49968 10.7488 3.99693 11.2515 3.37465 11.2515ZM4.49968 6.75139C3.8774 6.75139 3.37465 6.24865 3.37465 5.62637C3.37465 5.00409 3.8774 4.50134 4.49968 4.50134C5.12196 4.50134 5.6247 5.00409 5.6247 5.62637C5.6247 6.24865 5.12196 6.75139 4.49968 6.75139ZM8.99979 4.50134C8.37751 4.50134 7.87476 3.99859 7.87476 3.37631C7.87476 2.75403 8.37751 2.25129 8.99979 2.25129C9.62207 2.25129 10.1248 2.75403 10.1248 3.37631C10.1248 3.99859 9.62207 4.50134 8.99979 4.50134ZM13.4999 6.75139C12.8776 6.75139 12.3749 6.24865 12.3749 5.62637C12.3749 5.00409 12.8776 4.50134 13.4999 4.50134C14.1222 4.50134 14.6249 5.00409 14.6249 5.62637C14.6249 6.24865 14.1222 6.75139 13.4999 6.75139Z" fill="#707FDD"/>
</svg>
