<svg width="18" height="19" viewBox="0 0 18 19" fill="none" xmlns="http://www.w3.org/2000/svg">
<path d="M11.3532 4.28423C11.7045 4.28423 11.9958 4.57556 11.9958 4.92686C11.9958 5.27817 11.7045 5.5695 11.3532 5.5695C11.0019 5.5695 10.7106 5.27817 10.7106 4.92686C10.7106 4.57556 11.0019 4.28423 11.3532 4.28423ZM11.3532 2.99896C10.2907 2.99896 9.4253 3.86437 9.4253 4.92686C9.4253 5.98935 10.2907 6.85477 11.3532 6.85477C12.4157 6.85477 13.2811 5.98935 13.2811 4.92686C13.2811 3.86437 12.4157 2.99896 11.3532 2.99896ZM16.2801 3.85581C16.52 3.85581 16.7085 4.04431 16.7085 4.28423C16.7085 4.52415 16.52 4.71265 16.2801 4.71265C16.0402 4.71265 15.8516 4.52415 15.8516 4.28423C15.8516 4.04431 16.0402 3.85581 16.2801 3.85581ZM16.2801 2.57054C15.3375 2.57054 14.5664 3.3417 14.5664 4.28423C14.5664 5.22676 15.3375 5.99792 16.2801 5.99792C17.2226 5.99792 17.9938 5.22676 17.9938 4.28423C17.9938 3.3417 17.2226 2.57054 16.2801 2.57054ZM14.5664 1.28527C14.5664 1.99645 13.9923 2.57054 13.2811 2.57054C12.5699 2.57054 11.9958 1.99645 11.9958 1.28527C11.9958 0.574087 12.5699 0 13.2811 0C13.9923 0 14.5664 0.574087 14.5664 1.28527ZM0.805435 9.24537C0.291328 9.7252 0 10.4021 0 11.1133V16.2801C0 17.7024 1.14817 18.8506 2.57054 18.8506H14.2922C14.8491 18.8506 15.3632 18.4479 15.4232 17.8909C15.4918 17.2483 14.9862 16.7085 14.3607 16.7085H9.85373C9.61381 16.7085 9.4253 16.52 9.4253 16.2801C9.4253 16.0402 9.61381 15.8516 9.85373 15.8516H16.0059C16.5628 15.8516 17.0769 15.4489 17.1369 14.892C17.2055 14.2493 16.6999 13.7095 16.0744 13.7095H9.85373C9.61381 13.7095 9.4253 13.521 9.4253 13.2811C9.4253 13.0412 9.61381 12.8527 9.85373 12.8527H16.8627C17.4197 12.8527 17.9338 12.45 17.9938 11.893C18.0623 11.2504 17.5568 10.7106 16.9313 10.7106H9.85373C9.61381 10.7106 9.4253 10.5221 9.4253 10.2821C9.4253 10.0422 9.61381 9.85373 9.85373 9.85373H15.149C15.706 9.85373 16.2201 9.45101 16.2801 8.89406C16.3486 8.25142 15.8431 7.71161 15.2176 7.71161H6.73481L8.01151 5.47524C8.08862 5.33815 8.13147 5.19249 8.13147 5.02112C8.13147 4.79834 8.05435 4.59269 7.90869 4.42132L7.54881 4.03574C7.22321 3.70157 6.6834 3.68444 6.34066 4.01004L0.805435 9.24537Z" fill="#707FDD"/>
</svg>
