<svg width="18" height="18" viewBox="0 0 18 18" fill="none" xmlns="http://www.w3.org/2000/svg">
<path d="M5.625 10.125H3.65625C3.50086 10.125 3.375 9.99914 3.375 9.84375V9.28125C3.375 9.12586 3.50086 9 3.65625 9H5.625V6.75H3.65625C3.50086 6.75 3.375 6.62414 3.375 6.46875V5.90625C3.375 5.75086 3.50086 5.625 3.65625 5.625H5.625V3.375H3.65625C3.50086 3.375 3.375 3.24914 3.375 3.09375V2.53125C3.375 2.37586 3.50086 2.25 3.65625 2.25H5.625V1.125C5.625 0.503789 5.12121 0 4.5 0H1.125C0.503789 0 0 0.503789 0 1.125V16.875C0 16.9724 0.0319922 17.0592 0.0551953 17.1492L5.625 11.5798V10.125ZM16.875 12.375H15.75V14.3438C15.75 14.4991 15.6241 14.625 15.4688 14.625H14.9063C14.7509 14.625 14.625 14.4991 14.625 14.3438V12.375H12.375V14.3438C12.375 14.4991 12.2491 14.625 12.0938 14.625H11.5312C11.3759 14.625 11.25 14.4991 11.25 14.3438V12.375H9V14.3438C9 14.4991 8.87414 14.625 8.71875 14.625H8.15625C8.00086 14.625 7.875 14.4991 7.875 14.3438V12.375H6.42059L0.850781 17.9448C0.940781 17.968 1.02797 18 1.125 18H16.875C17.4962 18 18 17.4962 18 16.875V13.5C18 12.8788 17.4962 12.375 16.875 12.375Z" fill="#707FDD"/>
</svg>
